<svg width="56" height="56" viewBox="0 0 56 56" fill="none" xmlns="http://www.w3.org/2000/svg">
  <path d="
    M 6 28
    A 22 22 0 1 0 50 28
    A 22 22 0 1 0 6 28
    Z
    M 13 28
    A 15 15 0 1 1 43 28
    A 15 15 0 1 1 13 28
    Z
  " fill="#b5c28e" fill-rule="evenodd" opacity="0.45"/>
  <path d="
    M 6 28
    A 22 22 0 1 0 50 28
    A 22 22 0 1 0 6 28
    Z
    M 13 28
    A 15 15 0 1 1 43 28
    A 15 15 0 1 1 13 28
    Z
  " fill="none" stroke="#7a8a5a" stroke-width="1" fill-rule="evenodd" opacity="0.6"/>
</svg>
